# xmcd
#
# Track frame offsets:
#	150
#	18672
#	37481
#	54590
#	72024
#	91663
#	109753
#	123672
#	144661
#	159388
#	175068
#	194798
#	211023
#	226596
#	245078
#	271038
#
# Disc length: 3622 seconds
#
# Revision: 1
# Processed by: cddbd v1.5.2PL0 Copyright (c) Steve Scherf et al.
# Submitted via: audiograbber 1.83.01
#
DISCID=e10e2410
DTITLE=Alabama - SC8971
DYEAR=1900
DGENRE=Karaoke
TTITLE0=Close Enough To Perfect
TTITLE1=Lady Down On Love
TTITLE2=Take A Little Trip
TTITLE3=T.L.C.A.S.A.P.
TTITLE4=There's No Way
TTITLE5=Sad Lookin' Moon
TTITLE6=How Do You Fall In Love
TTITLE7=Dancin', Shaggin' On The Boulevard
TTITLE8=Maker Said Take Her, The
TTITLE9=Tennessee River
TTITLE10=Fallin' Again
TTITLE11=In Pictures
TTITLE12=Born Country
TTITLE13=Cheap Seats, The
TTITLE14=She Ain't Your Ordinary Girl
TTITLE15=Data Track
EXTD=
EXTT0=
EXTT1=
EXTT2=
EXTT3=
EXTT4=
EXTT5=
EXTT6=
EXTT7=
EXTT8=
EXTT9=
EXTT10=
EXTT11=
EXTT12=
EXTT13=
EXTT14=
EXTT15=
PLAYORDER=
